<svg width="124" height="54" viewBox="0 0 124 54" fill="none" xmlns="http://www.w3.org/2000/svg">
<path d="M8.91903 39.3231V51.4552H2.14666V23.0915H8.69744V34.088H8.93288C9.413 32.7769 10.1978 31.752 11.2873 31.0134C12.386 30.2748 13.7294 29.9055 15.3175 29.9055C16.8132 29.9055 18.1151 30.2378 19.223 30.9026C20.331 31.5582 21.1896 32.4861 21.799 33.6863C22.4176 34.8866 22.7223 36.29 22.7131 37.8966V51.4552H15.9407V39.2261C15.9499 38.0443 15.6545 37.121 15.0543 36.4562C14.4542 35.7915 13.6094 35.4591 12.5199 35.4591C11.8089 35.4591 11.1811 35.616 10.6364 35.93C10.1009 36.2346 9.68075 36.6732 9.37607 37.2457C9.08061 37.8181 8.92827 38.5106 8.91903 39.3231ZM32.9374 51.8153C31.5802 51.8153 30.3753 51.589 29.3227 51.1366C28.2794 50.675 27.453 49.9825 26.8437 49.0592C26.2435 48.1267 25.9434 46.9587 25.9434 45.5553C25.9434 44.3735 26.1512 43.3763 26.5667 42.5638C26.9822 41.7513 27.5546 41.0912 28.284 40.5834C29.0134 40.0756 29.8536 39.6924 30.8046 39.4339C31.7556 39.1661 32.7712 38.9861 33.8515 38.8937C35.061 38.7829 36.0351 38.6675 36.7737 38.5475C37.5123 38.4182 38.0479 38.2382 38.3802 38.0074C38.7219 37.7673 38.8927 37.4303 38.8927 36.9964V36.9271C38.8927 36.2162 38.648 35.6668 38.1586 35.279C37.6693 34.8912 37.0091 34.6974 36.1782 34.6974C35.2826 34.6974 34.5624 34.8912 34.0177 35.279C33.4729 35.6668 33.1267 36.2023 32.979 36.8856L26.7329 36.664C26.9175 35.3714 27.393 34.2172 28.1594 33.2016C28.9349 32.1768 29.9967 31.3735 31.3447 30.7918C32.702 30.2009 34.3316 29.9055 36.2336 29.9055C37.5908 29.9055 38.8419 30.067 39.9868 30.3902C41.1317 30.7041 42.1288 31.1658 42.9782 31.7751C43.8277 32.3753 44.4832 33.1139 44.9449 33.991C45.4157 34.8682 45.6512 35.8699 45.6512 36.9964V51.4552H39.2805V48.4914H39.1143C38.7357 49.2116 38.251 49.8209 37.6601 50.3195C37.0784 50.8181 36.3905 51.192 35.5965 51.4413C34.8117 51.6906 33.9253 51.8153 32.9374 51.8153ZM35.0287 47.3834C35.7581 47.3834 36.4136 47.2357 36.9953 46.9403C37.5862 46.6448 38.0571 46.2386 38.4079 45.7215C38.7588 45.1952 38.9342 44.5859 38.9342 43.8934V41.8714C38.7403 41.9729 38.5049 42.0653 38.2279 42.1484C37.9601 42.2314 37.6647 42.3099 37.3415 42.3838C37.0184 42.4577 36.686 42.5223 36.3444 42.5777C36.0028 42.6331 35.675 42.6839 35.3611 42.73C34.724 42.8316 34.1792 42.9886 33.7268 43.2009C33.2836 43.4133 32.942 43.6903 32.702 44.0319C32.4711 44.3643 32.3557 44.7613 32.3557 45.2229C32.3557 45.9246 32.605 46.4601 33.1036 46.8295C33.6114 47.1988 34.2531 47.3834 35.0287 47.3834ZM49.7922 51.4552V23.0915H56.5645V33.8248H56.703C56.98 33.1785 57.3724 32.5553 57.8802 31.9552C58.3973 31.355 59.0528 30.8657 59.8469 30.4871C60.6501 30.0993 61.6104 29.9055 62.7275 29.9055C64.2048 29.9055 65.5851 30.2932 66.8685 31.0688C68.1611 31.8444 69.2045 33.04 69.9985 34.6558C70.7925 36.2716 71.1895 38.3305 71.1895 40.8327C71.1895 43.2425 70.8064 45.2599 70.04 46.8849C69.2829 48.5099 68.2581 49.7286 66.9655 50.5411C65.6821 51.3536 64.2556 51.7599 62.686 51.7599C61.615 51.7599 60.6871 51.5844 59.9023 51.2336C59.1175 50.8827 58.4573 50.4211 57.9218 49.8486C57.3955 49.2762 56.9893 48.6622 56.703 48.0067H56.4953V51.4552H49.7922ZM56.426 40.8188C56.426 41.9637 56.5784 42.9609 56.8831 43.8103C57.197 44.6597 57.6448 45.3199 58.2265 45.7908C58.8174 46.2524 59.5237 46.4832 60.3454 46.4832C61.1764 46.4832 61.8827 46.2524 62.4644 45.7908C63.0461 45.3199 63.4846 44.6597 63.7801 43.8103C64.0848 42.9609 64.2371 41.9637 64.2371 40.8188C64.2371 39.6739 64.0848 38.6814 63.7801 37.8412C63.4846 37.001 63.0461 36.3501 62.4644 35.8884C61.892 35.4268 61.1856 35.1959 60.3454 35.1959C59.5145 35.1959 58.8082 35.4221 58.2265 35.8746C57.6448 36.327 57.197 36.9733 56.8831 37.8135C56.5784 38.6537 56.426 39.6555 56.426 40.8188ZM74.7385 51.4552V30.1824H81.5108V51.4552H74.7385ZM78.1316 27.7034C77.1806 27.7034 76.3635 27.3895 75.6802 26.7616C74.997 26.1246 74.6554 25.3582 74.6554 24.4626C74.6554 23.5763 74.997 22.8192 75.6802 22.1913C76.3635 21.5542 77.1806 21.2357 78.1316 21.2357C79.0918 21.2357 79.9089 21.5542 80.5829 22.1913C81.2662 22.8192 81.6078 23.5763 81.6078 24.4626C81.6078 25.3582 81.2662 26.1246 80.5829 26.7616C79.9089 27.3895 79.0918 27.7034 78.1316 27.7034ZM97.8289 30.1824V35.1682H84.4088V30.1824H97.8289ZM87.2203 25.0859H93.9926V44.7659C93.9926 45.1814 94.0573 45.5184 94.1865 45.7769C94.325 46.0262 94.5235 46.2062 94.782 46.317C95.0406 46.4186 95.3499 46.4694 95.71 46.4694C95.9685 46.4694 96.2409 46.4463 96.5271 46.4001C96.8225 46.3447 97.0441 46.2986 97.1919 46.2616L98.2167 51.1505C97.8936 51.2428 97.4365 51.3582 96.8456 51.4967C96.2639 51.6352 95.5669 51.7229 94.7544 51.7599C93.1663 51.8337 91.8044 51.6491 90.6688 51.2059C89.5423 50.7535 88.6791 50.0518 88.0789 49.1008C87.488 48.1498 87.2018 46.9541 87.2203 45.5138V25.0859ZM119.59 36.6778L113.371 36.844C113.307 36.4008 113.131 36.0084 112.845 35.6668C112.559 35.316 112.185 35.0436 111.723 34.8497C111.271 34.6466 110.745 34.545 110.145 34.545C109.36 34.545 108.69 34.702 108.136 35.0159C107.592 35.3298 107.324 35.7545 107.333 36.29C107.324 36.7055 107.49 37.0656 107.832 37.3703C108.183 37.675 108.806 37.9197 109.701 38.1043L113.801 38.8799C115.924 39.2861 117.503 39.9601 118.537 40.9019C119.581 41.8437 120.107 43.0901 120.116 44.6412C120.107 46.1001 119.673 47.3696 118.814 48.4498C117.965 49.5301 116.801 50.3703 115.324 50.9704C113.847 51.5613 112.157 51.8568 110.255 51.8568C107.218 51.8568 104.822 51.2336 103.067 49.9871C101.322 48.7314 100.325 47.0511 100.076 44.9459L106.765 44.7797C106.913 45.5553 107.296 46.1462 107.915 46.5525C108.533 46.9587 109.323 47.1618 110.283 47.1618C111.151 47.1618 111.857 47.0003 112.402 46.6771C112.947 46.354 113.224 45.9246 113.233 45.3891C113.224 44.909 113.011 44.5258 112.596 44.2396C112.18 43.9442 111.529 43.7133 110.643 43.5471L106.931 42.8408C104.799 42.453 103.211 41.7375 102.167 40.6942C101.124 39.6416 100.607 38.3028 100.616 36.6778C100.607 35.256 100.985 34.0418 101.752 33.0354C102.518 32.0198 103.608 31.2442 105.02 30.7087C106.433 30.1732 108.099 29.9055 110.02 29.9055C112.901 29.9055 115.172 30.5102 116.834 31.7197C118.496 32.92 119.414 34.5727 119.59 36.6778Z" fill="white"/>
<rect x="0.5" y="0.5" width="15" height="15" rx="3.5" fill="#18181B" stroke="#27272A"/>
<rect x="20.5" y="0.5" width="15" height="15" rx="3.5" fill="#4C1D95" stroke="#6D28D9"/>
<rect x="40.5" y="0.5" width="15" height="15" rx="3.5" fill="#5B21B6" stroke="#7C3AED"/>
<rect x="60.5" y="0.5" width="15" height="15" rx="3.5" fill="#6D28D9" stroke="#8B5CF6"/>
<rect x="80.5" y="0.5" width="15" height="15" rx="3.5" fill="#7C3AED" stroke="#A78BFA"/>
<rect x="100.5" y="0.5" width="15" height="15" rx="3.5" fill="#8B5CF6" stroke="#C4B5FD"/>
</svg>
